<svg id="Calque_1" data-name="Calque 1" xmlns="http://www.w3.org/2000/svg" viewBox="0 0 150.24 115.39" height="20px" width="20px"><title>SPOT-HIT</title><path d="M130.24,0H20A20.06,20.06,0,0,0,0,20V82.05s0,.1,0,.15H0v33.19L10.7,99.73a19.87,19.87,0,0,0,9.3,2.32H130.24a20.06,20.06,0,0,0,20-20V20A20.06,20.06,0,0,0,130.24,0ZM56.69,82.2h-11V56.52A8.68,8.68,0,0,0,37,47.85H31V82.2H20V19.84H31v17h6A19.69,19.69,0,0,1,56.69,56.52Zm28.18,0h-11V36.85h11Zm-5.5-51.36a5.5,5.5,0,1,1,5.5-5.5A5.5,5.5,0,0,1,79.37,30.84ZM130.22,82.2h-8.5a19.69,19.69,0,0,1-19.67-19.67V19.84h11V39.68h11.5v11h-11.5V62.53a8.68,8.68,0,0,0,8.67,8.67h8.5Z" style="fill:#34405C"/></svg>
