<svg xmlns="http://www.w3.org/2000/svg" viewBox="0 0 360 115.39" preserveAspectRatio="xMidYMin slice"><g id="HIT"><path d="M340,0H229.76a20.06,20.06,0,0,0-20,20V82.05s0,.1,0,.15h0v33.19l10.71-15.66a19.83,19.83,0,0,0,9.29,2.32H340a20.06,20.06,0,0,0,20-20V20A20.06,20.06,0,0,0,340,0ZM266.46,82.2h-11V56.52a8.68,8.68,0,0,0-8.68-8.67h-6V82.2h-11V19.84h11v17h6a19.7,19.7,0,0,1,19.68,19.67Zm28.17,0h-11V36.85h11Zm-5.5-51.36a5.5,5.5,0,1,1,5.5-5.5A5.5,5.5,0,0,1,289.13,30.84ZM340,82.2h-8.51a19.69,19.69,0,0,1-19.67-19.67V19.84h11V39.68h11.51v11H322.81V62.53a8.68,8.68,0,0,0,8.67,8.67H340Z" style="fill:#FFFFFF"/></g><g id="SPOT"><path d="M135.72,36.51a17.35,17.35,0,1,1-17.34,17.35,17.37,17.37,0,0,1,17.34-17.35m0-11a28.35,28.35,0,1,0,28.35,28.35,28.34,28.34,0,0,0-28.35-28.35Z" style="fill:#ffffff"/><path d="M189.75,71.2a8.68,8.68,0,0,1-8.67-8.67V50.68h11.51v-11H181.08V19.84h-11V62.53A19.69,19.69,0,0,0,189.75,82.2h8.51v-11Z" style="fill:#ffffff"/><path d="M19.67,82C8.83,82,0,74.48,0,65.2H11C11,68.31,15.05,71,19.67,71s8.68-2.73,8.68-5.84c0-2.55-2.69-3.8-10.26-6.07S0,53.7,0,42.52c0-9.29,8.83-16.84,19.67-16.84s19.68,7.55,19.68,16.84h-11c0-3.11-4.06-5.84-8.68-5.84S11,39.41,11,42.52c0,2.54,2.69,3.8,10.25,6.07S39.35,54,39.35,65.2C39.35,74.48,30.52,82,19.67,82Z" style="fill:#ffffff"/><path d="M73.36,25.51A28.34,28.34,0,0,0,45,53.86h0v48.19H56V76.27A28.34,28.34,0,1,0,73.36,25.51Zm0,45.69A17.35,17.35,0,1,1,90.71,53.86,17.36,17.36,0,0,1,73.36,71.2Z" style="fill:#ffffff"/></g></svg>
